<svg width="3383" height="2970" xmlns="http://www.w3.org/2000/svg" xmlns:xlink="http://www.w3.org/1999/xlink" xml:space="preserve" overflow="hidden"><g transform="translate(-508 -1113)"><g><rect x="510" y="1117" width="3380" height="2963" fill="#FFFFFF" fill-opacity="1"/><rect x="579" y="1164" width="3242" height="2869" stroke="#000000" stroke-width="5.72917" stroke-linecap="butt" stroke-linejoin="miter" stroke-miterlimit="8" stroke-opacity="1" fill="#FFFFFF" fill-opacity="1"/><text fill="#000000" fill-opacity="1" font-family="Arial,Arial_MSFontService,sans-serif" font-style="normal" font-variant="normal" font-weight="400" font-stretch="normal" font-size="55" text-anchor="start" direction="ltr" writing-mode="lr-tb" unicode-bidi="normal" text-decoration="none" transform="matrix(1 0 0 1 760.083 1250)">AWS Cloud</text><g><g><g><path d="M0 0 137 0 137 137 0 137Z" fill="#242F3E" fill-rule="evenodd" fill-opacity="1" transform="matrix(1 0 0 1.0073 579 1164)"/><path d="M111.991 81.8603C113.228 83.4667 110.621 90.0769 109.454 93.0361 109.097 93.9335 109.858 94.2862 110.652 93.6115 115.834 89.2138 117.177 79.9971 116.112 78.6682 115.06 77.3462 106.005 76.2125 100.483 80.1478 99.6306 80.7541 99.7779 81.5898 100.72 81.4802 103.83 81.0966 110.758 80.2574 111.991 81.8603L111.991 81.8603ZM109.108 88.7412C110.882 87.4465 109.361 85.5182 107.553 86.2752 95.5206 91.2894 82.4577 93.7177 70.5626 93.7177 52.9478 93.7177 35.8776 88.9604 22.0783 81.0623 20.8727 80.3705 19.9787 81.5932 20.9857 82.4803 33.7712 93.8376 50.677 100.664 69.4392 100.664 82.831 100.664 98.3839 96.5262 109.108 88.7412ZM101.764 70.8798C100.059 70.8798 98.3908 70.6982 96.7673 70.3283 95.137 69.955 93.8903 69.5337 93.0238 69.0508 92.4929 68.7631 92.1607 68.4617 92.0271 68.1672 91.897 67.8658 91.8285 67.5712 91.8285 67.2767L91.8285 65.6703C91.8285 65.0059 92.0785 64.6668 92.5683 64.6668 92.7566 64.6668 92.9553 64.7113 93.1608 64.7798 93.3697 64.8586 93.6437 64.9682 93.9862 65.1155 95.0822 65.5984 96.2707 65.9649 97.5619 66.2252 98.8497 66.4821 100.134 66.6122 101.418 66.6122 103.463 66.6122 105.042 66.2629 106.159 65.5573 107.279 64.8586 107.834 63.8619 107.834 62.5673 107.834 61.6768 107.542 60.9404 106.953 60.3445 106.368 59.7485 105.278 59.2039 103.693 58.6833L98.9833 57.2414C96.5961 56.5016 94.8664 55.4296 93.7876 54.0288 92.7087 52.6176 92.171 51.0867 92.171 49.4153 92.171 48.0898 92.4621 46.9184 93.0546 45.8978 93.6369 44.8806 94.4075 44.014 95.3699 43.2914 96.346 42.5721 97.4729 42.031 98.7572 41.6542 100.038 41.2877 101.401 41.0994 102.84 41.0994 103.559 41.0994 104.289 41.1473 105.032 41.2398 105.768 41.3288 106.467 41.4521 107.128 41.5994 107.789 41.7535 108.405 41.9179 108.971 42.0995 109.539 42.2878 109.991 42.4728 110.337 42.6543 110.786 42.9112 111.104 43.1715 111.3 43.4318 111.488 43.6887 111.584 44.038 111.584 44.4867L111.584 45.98C111.584 46.6479 111.337 46.9767 110.841 46.9767 110.577 46.9767 110.166 46.8534 109.594 46.5931 107.744 45.7745 105.655 45.3738 103.357 45.3738 101.501 45.3738 100.059 45.6683 99.0381 46.2574 98.014 46.8534 97.5037 47.7952 97.5037 49.0899 97.5037 49.9735 97.8257 50.7236 98.473 51.3333 99.1169 51.9429 100.305 52.5252 102.049 53.0835L106.645 54.5288C108.991 55.2618 110.666 56.2824 111.666 57.5702 112.673 58.8683 113.177 60.3445 113.177 62.0056 113.177 63.379 112.892 64.6086 112.32 65.6977 111.752 66.7903 110.967 67.7185 109.96 68.496 108.96 69.2734 107.762 69.8625 106.361 70.2701 104.957 70.6811 103.426 70.8798 101.764 70.8798ZM60.0992 70.0441C59.5307 70.0441 59.1163 69.9516 58.8491 69.7461 58.582 69.5372 58.3559 69.1262 58.1675 68.496L50.5572 43.9832C50.3756 43.353 50.2763 42.9317 50.2763 42.7125 50.2763 42.1954 50.5435 41.9351 51.0743 41.9351L54.2493 41.9351C54.8555 41.9351 55.2802 42.0378 55.5303 42.2433 55.7735 42.442 55.9892 42.853 56.1776 43.49L61.6268 64.451 66.6855 43.49C66.8362 42.853 67.0417 42.442 67.3054 42.2433 67.5692 42.0378 68.0041 41.9351 68.6069 41.9351L71.2271 41.9351C71.8264 41.9351 72.2614 42.0378 72.5286 42.2433 72.7923 42.442 73.0012 42.853 73.1519 43.49L78.2654 64.7285 83.8825 43.49C84.0708 42.853 84.2866 42.442 84.5332 42.2433 84.7832 42.0378 85.2045 41.9351 85.8107 41.9351L88.8179 41.9351C89.3522 41.9351 89.6159 42.1954 89.6159 42.7125 89.6159 42.853 89.5919 43.0242 89.5611 43.2057 89.5166 43.3975 89.4481 43.6544 89.3282 43.9832L81.4987 68.496C81.3103 69.1262 81.0808 69.5372 80.8137 69.7461 80.5499 69.9516 80.1321 70.0441 79.5669 70.0441L76.7824 70.0441C76.1796 70.0441 75.7447 69.9413 75.4809 69.7221 75.2172 69.4995 75.0083 69.0679 74.8576 68.4446L69.8023 48.0316 64.812 68.4446C64.6613 69.0679 64.449 69.4995 64.1853 69.7221 63.9181 69.9413 63.4866 70.0441 62.8803 70.0441L60.0992 70.0441ZM34.0418 66.6122C35.107 66.6122 36.2201 66.417 37.3949 66.03 38.5662 65.6395 39.5869 64.9682 40.4568 64.0024 40.9911 63.4133 41.3542 62.7385 41.5665 61.9782 41.772 61.2247 41.8714 60.3102 41.8714 59.2348L41.8714 57.9059C40.9329 57.6832 39.9397 57.5086 38.895 57.3784 37.8538 57.2517 36.8435 57.1832 35.8571 57.1832 33.7027 57.1832 32.0895 57.6079 31.0346 58.4607 29.9763 59.3101 29.442 60.526 29.442 62.1255 29.442 63.6016 29.8427 64.7148 30.6373 65.4751 31.4319 66.2355 32.569 66.6122 34.0418 66.6122ZM47.2144 61.7898C47.2144 62.9714 47.3342 63.9099 47.5808 64.6154 47.8309 65.321 48.1802 66.0813 48.6323 66.8896 48.783 67.1499 48.8584 67.3897 48.8584 67.6055 48.8584 67.9445 48.6494 68.2596 48.235 68.5508L46.1903 69.8865C45.8889 70.068 45.6046 70.1639 45.3409 70.1639 44.995 70.1639 44.6764 70.0167 44.375 69.7221 43.9161 69.2734 43.5325 68.7871 43.214 68.2494 42.8852 67.7151 42.5564 67.0883 42.2173 66.3862 39.6794 69.3077 36.5044 70.7702 32.6821 70.7702 29.9558 70.7702 27.798 70.0167 26.2054 68.496 24.6196 66.9821 23.825 64.9477 23.825 62.3995 23.825 59.704 24.808 57.5257 26.7808 55.8817 28.7433 54.2377 31.3977 53.4123 34.7234 53.4123 35.8228 53.4123 36.9668 53.4979 38.1587 53.6623 39.3471 53.8267 40.5904 54.063 41.8714 54.3576L41.8714 52.032C41.8714 49.6276 41.3679 47.9357 40.3438 46.9527 39.3232 45.9731 37.5661 45.4868 35.0693 45.4868 33.9288 45.4868 32.7643 45.6204 31.5724 45.8978 30.3839 46.1752 29.216 46.5348 28.0823 46.9767 27.5514 47.1993 27.1712 47.3397 26.9486 47.3945 26.7226 47.4493 26.5513 47.4767 26.4383 47.4767 25.9862 47.4767 25.7533 47.1479 25.7533 46.4766L25.7533 44.9285C25.7533 44.4079 25.8355 44.038 25.9862 43.8222 26.1369 43.5962 26.4383 43.3736 26.8938 43.1544 28.0275 42.5961 29.3906 42.1166 30.9764 41.7124 32.569 41.3049 34.2507 41.0994 36.0317 41.0994 39.8883 41.0994 42.7173 41.9659 44.5155 43.6784 46.3102 45.3977 47.2144 47.9939 47.2144 51.4703L47.2144 61.7898Z" fill="#FFFFFF" fill-rule="evenodd" fill-opacity="1" transform="matrix(1 0 0 1.0073 579 1164)"/></g></g></g><rect x="591" y="1527" width="3219" height="2479" stroke="#8C4FFF" stroke-width="5.72917" stroke-linecap="butt" stroke-linejoin="miter" stroke-miterlimit="8" stroke-opacity="1" fill="none"/><text fill="#8C4FFF" fill-opacity="1" font-family="Arial,Arial_MSFontService,sans-serif" font-style="normal" font-variant="normal" font-weight="400" font-stretch="normal" font-size="55" text-anchor="start" direction="ltr" writing-mode="lr-tb" unicode-bidi="normal" text-decoration="none" transform="matrix(1 0 0 1 772.93 1613)">VPC</text><text fill="#8C4FFF" fill-opacity="1" font-family="Arial,Arial_MSFontService,sans-serif" font-style="normal" font-variant="normal" font-weight="400" font-stretch="normal" font-size="46" text-anchor="start" direction="ltr" writing-mode="lr-tb" unicode-bidi="normal" text-decoration="none" transform="matrix(1 0 0 1 772.93 1671)">192.168.0.0/16</text><g><g><g><path d="M591 1525 729 1525 729 1663 591 1663Z" fill="#8C4FFF" fill-rule="evenodd" fill-opacity="1"/><path d="M697.849 1597.55 687.692 1593.19 687.692 1629.38C696.472 1628.17 697.808 1619.14 697.863 1618.73L697.849 1597.55ZM684.242 1629.43 684.242 1593.17 673.771 1597.56 673.771 1618.96C673.816 1619.14 675.307 1628.5 684.242 1629.43ZM685.298 1588.99C685.726 1588.81 686.216 1588.81 686.647 1588.99L700.254 1594.83C700.888 1595.1 701.299 1595.72 701.299 1596.41L701.299 1618.96C700.668 1623.95 696.617 1632.97 685.681 1632.97 675.072 1632.97 671.004 1623.96 670.335 1619.19L670.321 1596.41C670.321 1595.72 670.739 1595.09 671.377 1594.82L685.298 1588.99ZM704.79 1591.19 685.95 1582.89 666.871 1590.91 666.871 1615.51C666.868 1615.65 666.685 1625.4 672.588 1631.45 675.752 1634.7 680.157 1636.35 685.681 1636.35 691.208 1636.35 695.641 1634.7 698.856 1631.44 704.842 1625.38 704.79 1615.63 704.79 1615.53L704.79 1591.19ZM701.33 1633.85C697.442 1637.8 692.174 1639.8 685.681 1639.8 679.181 1639.8 673.937 1637.8 670.097 1633.84 663.18 1626.72 663.408 1615.91 663.421 1615.46L663.421 1589.77C663.421 1589.07 663.835 1588.45 664.474 1588.18L685.294 1579.41C685.733 1579.24 686.229 1579.23 686.661 1579.43L707.209 1588.48C707.837 1588.76 708.24 1589.38 708.24 1590.06L708.24 1615.51C708.247 1615.94 708.333 1626.73 701.33 1633.85ZM628.921 1608.62 656.521 1608.62 656.521 1612.07 628.921 1612.07C619.223 1612.07 612.323 1605.11 611.744 1594.76 611.702 1594.38 611.699 1593.92 611.699 1593.45 611.699 1584.8 616.246 1578.88 624.868 1576.28 624.802 1575.49 624.757 1574.67 624.757 1574.04 624.757 1563.98 630.198 1555.26 638.616 1551.81 649.994 1547.16 662.911 1548.72 670.032 1555.62 672.602 1558.11 674.599 1560.94 676.104 1564.19 678.205 1562.64 680.934 1561.91 684.208 1562.07 690.349 1562.38 695.072 1567.98 696.052 1575.9 701.22 1576.32 704.625 1578.94 706.436 1583.86L703.203 1585.05C701.727 1581.06 699.036 1579.28 694.471 1579.28 693.557 1579.28 692.802 1578.57 692.746 1577.66 692.27 1569.59 687.896 1565.71 684.032 1565.52 680.771 1565.34 678.356 1566.27 676.859 1568.25 676.476 1568.75 675.876 1569 675.227 1568.91 674.606 1568.82 674.082 1568.39 673.865 1567.8 672.471 1563.99 670.432 1560.82 667.63 1558.09 661.462 1552.12 650.07 1550.85 639.923 1555 632.806 1557.92 628.207 1565.39 628.207 1574.04 628.207 1574.98 628.328 1576.44 628.435 1577.35 628.538 1578.22 627.983 1579.02 627.138 1579.23 619.182 1581.2 615.149 1585.99 615.149 1593.45 615.149 1593.8 615.145 1594.15 615.18 1594.49 615.666 1603.1 621.055 1608.62 628.921 1608.62Z" fill="#FFFFFF" fill-rule="evenodd" fill-opacity="1"/></g></g></g><rect x="742.5" y="1346.5" width="2904" height="2132" stroke="#107FBE" stroke-width="4.58333" stroke-linecap="butt" stroke-linejoin="miter" stroke-miterlimit="8" stroke-dasharray="18.3333 13.75" stroke-opacity="1" fill="none"/><text fill="#0C7FBE" fill-opacity="1" font-family="Arial,Arial_MSFontService,sans-serif" font-style="normal" font-variant="normal" font-weight="400" font-stretch="normal" font-size="55" text-anchor="start" direction="ltr" writing-mode="lr-tb" unicode-bidi="normal" text-decoration="none" transform="matrix(1 0 0 1 1998.03 1416)">Availability zone</text><text fill="#0C7FBE" fill-opacity="1" font-family="Arial,Arial_MSFontService,sans-serif" font-style="normal" font-variant="normal" font-weight="400" font-stretch="normal" font-size="46" text-anchor="start" direction="ltr" writing-mode="lr-tb" unicode-bidi="normal" text-decoration="none" transform="matrix(1 0 0 1 2080.9 1474)">eu</text><text fill="#0C7FBE" fill-opacity="1" font-family="Arial,Arial_MSFontService,sans-serif" font-style="normal" font-variant="normal" font-weight="400" font-stretch="normal" font-size="46" text-anchor="start" direction="ltr" writing-mode="lr-tb" unicode-bidi="normal" text-decoration="none" transform="matrix(1 0 0 1 2131.32 1474)">-</text><text fill="#0C7FBE" fill-opacity="1" font-family="Arial,Arial_MSFontService,sans-serif" font-style="normal" font-variant="normal" font-weight="400" font-stretch="normal" font-size="46" text-anchor="start" direction="ltr" writing-mode="lr-tb" unicode-bidi="normal" text-decoration="none" transform="matrix(1 0 0 1 2146.78 1474)">west</text><text fill="#0C7FBE" fill-opacity="1" font-family="Arial,Arial_MSFontService,sans-serif" font-style="normal" font-variant="normal" font-weight="400" font-stretch="normal" font-size="46" text-anchor="start" direction="ltr" writing-mode="lr-tb" unicode-bidi="normal" text-decoration="none" transform="matrix(1 0 0 1 2240.74 1474)">-</text><text fill="#0C7FBE" fill-opacity="1" font-family="Arial,Arial_MSFontService,sans-serif" font-style="normal" font-variant="normal" font-weight="400" font-stretch="normal" font-size="46" text-anchor="start" direction="ltr" writing-mode="lr-tb" unicode-bidi="normal" text-decoration="none" transform="matrix(1 0 0 1 2256.21 1474)">2a</text><rect x="779" y="1719" width="1868" height="1723" fill="#7AA115" fill-opacity="0.101961"/><text fill="#7AA115" fill-opacity="1" font-family="Arial,Arial_MSFontService,sans-serif" font-style="normal" font-variant="normal" font-weight="400" font-stretch="normal" font-size="55" text-anchor="start" direction="ltr" writing-mode="lr-tb" unicode-bidi="normal" text-decoration="none" transform="matrix(1 0 0 1 960.555 1805)">Public subnet</text><text fill="#7AA115" fill-opacity="1" font-family="Arial,Arial_MSFontService,sans-serif" font-style="normal" font-variant="normal" font-weight="400" font-stretch="normal" font-size="46" text-anchor="start" direction="ltr" writing-mode="lr-tb" unicode-bidi="normal" text-decoration="none" transform="matrix(1 0 0 1 960.555 1863)">192.168.56.0/24</text><g><g><g><path d="M0 0 137 0 137 137 0 137Z" fill="#7AA116" fill-rule="evenodd" fill-opacity="1" transform="matrix(1.0073 0 0 1 779 1719)"/><path d="M66.9107 75.5177C70.6988 75.5177 73.7812 78.5968 73.7812 82.3848 73.7812 86.1729 70.6988 89.2554 66.9107 89.2554 63.1227 89.2554 60.0402 86.1729 60.0402 82.3848 60.0402 78.5968 63.1227 75.5177 66.9107 75.5177L66.9107 75.5177ZM65.116 92.4988 65.116 104.466 68.541 104.466 68.541 92.516C73.4387 91.7282 77.2062 87.5052 77.2062 82.3848 77.2062 76.7096 72.5859 72.0927 66.9107 72.0927 61.2355 72.0927 56.6152 76.7096 56.6152 82.3848 56.6152 87.447 60.2936 91.6426 65.116 92.4988ZM34.25 113.073 99.366 113.073 99.366 61.6499 34.25 61.6499 34.25 113.073ZM48.1075 42.7576C48.1075 32.4005 56.533 23.975 66.8867 23.975 77.2439 23.975 85.666 32.4005 85.666 42.7576L85.666 58.2249 48.1075 58.2249 48.1075 42.7576ZM101.078 58.2249 89.091 58.2249 89.091 42.7576C89.091 30.5099 79.1277 20.55 66.8867 20.55 54.6424 20.55 44.6825 30.5099 44.6825 42.7576L44.6825 58.2249 32.5375 58.2249C31.5887 58.2249 30.825 58.9921 30.825 59.9374L30.825 114.785C30.825 115.731 31.5887 116.498 32.5375 116.498L101.078 116.498C102.024 116.498 102.791 115.731 102.791 114.785L102.791 59.9374C102.791 58.9921 102.024 58.2249 101.078 58.2249Z" fill="#FFFFFF" fill-rule="evenodd" fill-opacity="1" transform="matrix(1.0073 0 0 1 779 1719)"/></g></g></g><rect x="2673" y="1719" width="935" height="1723" fill="#7AA115" fill-opacity="0.101961"/><text fill="#7AA115" fill-opacity="1" font-family="Arial,Arial_MSFontService,sans-serif" font-style="normal" font-variant="normal" font-weight="400" font-stretch="normal" font-size="55" text-anchor="start" direction="ltr" writing-mode="lr-tb" unicode-bidi="normal" text-decoration="none" transform="matrix(1 0 0 1 2854.97 1805)">Private subnet</text><text fill="#7AA115" fill-opacity="1" font-family="Arial,Arial_MSFontService,sans-serif" font-style="normal" font-variant="normal" font-weight="400" font-stretch="normal" font-size="46" text-anchor="start" direction="ltr" writing-mode="lr-tb" unicode-bidi="normal" text-decoration="none" transform="matrix(1 0 0 1 2854.97 1863)">192.168.100.0/24</text><g><g><g><path d="M0 0 137 0 137 137 0 137Z" fill="#7AA116" fill-rule="evenodd" fill-opacity="1" transform="matrix(1.0073 0 0 1 2673 1719)"/><path d="M66.9107 75.5177C70.6988 75.5177 73.7812 78.5968 73.7812 82.3848 73.7812 86.1729 70.6988 89.2554 66.9107 89.2554 63.1227 89.2554 60.0402 86.1729 60.0402 82.3848 60.0402 78.5968 63.1227 75.5177 66.9107 75.5177L66.9107 75.5177ZM65.116 92.4988 65.116 104.466 68.541 104.466 68.541 92.516C73.4387 91.7282 77.2062 87.5052 77.2062 82.3848 77.2062 76.7096 72.5859 72.0927 66.9107 72.0927 61.2355 72.0927 56.6152 76.7096 56.6152 82.3848 56.6152 87.447 60.2936 91.6426 65.116 92.4988ZM34.25 113.073 99.366 113.073 99.366 61.6499 34.25 61.6499 34.25 113.073ZM48.1075 42.7576C48.1075 32.4005 56.533 23.975 66.8867 23.975 77.2439 23.975 85.666 32.4005 85.666 42.7576L85.666 58.2249 48.1075 58.2249 48.1075 42.7576ZM101.078 58.2249 89.091 58.2249 89.091 42.7576C89.091 30.5099 79.1277 20.55 66.8867 20.55 54.6424 20.55 44.6825 30.5099 44.6825 42.7576L44.6825 58.2249 32.5375 58.2249C31.5887 58.2249 30.825 58.9921 30.825 59.9374L30.825 114.785C30.825 115.731 31.5887 116.498 32.5375 116.498L101.078 116.498C102.024 116.498 102.791 115.731 102.791 114.785L102.791 59.9374C102.791 58.9921 102.024 58.2249 101.078 58.2249Z" fill="#FFFFFF" fill-rule="evenodd" fill-opacity="1" transform="matrix(1.0073 0 0 1 2673 1719)"/></g></g></g><g><g><g><path d="M1575 3594 1850 3594 1850 3869 1575 3869Z" fill="#7AA116" fill-rule="evenodd" fill-opacity="1"/><path d="M1682.86 3676.58C1704.39 3667.58 1719.64 3679.42 1725.2 3684.93 1729.73 3689.43 1733.26 3695.18 1735.7 3702.01 1736.13 3703.19 1737.17 3704.06 1738.42 3704.25 1739.69 3704.42 1740.93 3703.93 1741.68 3702.92 1744.39 3699.31 1748.36 3697.25 1752.56 3697.25 1758.83 3697.25 1766.43 3702.01 1767.22 3715.43 1767.31 3716.98 1768.43 3718.27 1769.95 3718.59 1785.53 3721.86 1793.43 3730.51 1793.43 3744.27 1793.43 3757.07 1787.58 3764.98 1776.03 3767.78L1777.64 3774.46C1792.26 3770.92 1800.31 3760.2 1800.31 3744.27 1800.31 3728.07 1790.94 3716.84 1773.85 3712.44 1771.99 3697.22 1762.03 3690.37 1752.56 3690.37 1748.03 3690.37 1743.71 3691.91 1740.15 3694.72 1737.53 3689.05 1734.15 3684.13 1730.04 3680.05 1716.42 3666.56 1697.8 3662.89 1680.21 3670.24 1665.16 3676.55 1653.82 3693.95 1653.82 3710.72 1653.82 3711.54 1653.85 3712.39 1653.9 3713.27 1640.09 3717.81 1631.94 3729.14 1631.94 3744.07 1631.94 3744.83 1631.97 3745.58 1632.02 3746.31 1632.73 3759.22 1641.36 3770.4 1654 3774.76L1656.24 3768.26C1646.25 3764.81 1639.44 3756.04 1638.88 3745.94 1638.85 3745.34 1638.81 3744.71 1638.81 3744.07 1638.81 3726.6 1651.1 3720.94 1658.42 3719.12 1660.1 3718.7 1661.2 3717.1 1661 3715.37 1660.79 3713.67 1660.69 3712.15 1660.69 3710.72 1660.69 3696.79 1670.43 3681.8 1682.86 3676.58ZM1753.69 3748.69C1753.69 3747.33 1753.4 3746.3 1752.86 3745.8 1752.27 3745.25 1751.25 3745.2 1750.48 3745.25L1705.56 3745.25C1703.66 3745.25 1702.12 3743.71 1702.12 3741.82 1702.12 3740.88 1701.78 3738.28 1701.38 3736.66L1689.49 3736.66C1688.96 3738.24 1688.4 3740.92 1688.37 3741.83 1688.33 3743.69 1686.8 3745.25 1684.94 3745.25L1674.62 3745.25C1673.62 3745.19 1672.6 3745.25 1672.02 3745.8 1671.48 3746.3 1671.19 3747.33 1671.19 3748.69L1671.19 3796.82 1753.69 3796.82 1753.69 3748.69ZM1760.56 3755.57 1760.56 3780.41 1769.44 3755.57 1760.56 3755.57ZM1760.36 3801.41 1760.33 3801.4C1759.86 3802.73 1758.62 3803.69 1757.13 3803.69L1667.75 3803.69C1665.85 3803.69 1664.31 3802.15 1664.31 3800.26L1664.31 3748.69C1664.31 3744.48 1665.95 3742.06 1667.32 3740.77 1668.64 3739.54 1670.97 3738.1 1674.85 3738.39L1681.9 3738.38C1682.51 3734.82 1684.04 3729.78 1687.71 3729.78L1703.36 3729.78C1703.57 3729.78 1703.78 3729.8 1703.99 3729.84 1707.23 3730.44 1708.37 3735.03 1708.78 3738.38L1750.25 3738.38C1753.88 3738.13 1756.24 3739.54 1757.56 3740.77 1758.93 3742.06 1760.56 3744.48 1760.56 3748.69L1774.31 3748.69C1775.43 3748.69 1776.48 3749.23 1777.12 3750.15 1777.77 3751.06 1777.93 3752.23 1777.55 3753.28L1760.36 3801.41ZM1801.81 3816.02 1775.67 3789.87 1770.81 3794.73 1796.95 3820.87 1778.03 3820.87 1778.03 3827.75 1805.25 3827.75C1807.15 3827.75 1808.69 3826.21 1808.69 3824.31L1808.69 3797.09 1801.81 3797.09 1801.81 3816.02ZM1652.77 3789.75 1623.06 3816.57 1623.06 3797.09 1616.19 3797.09 1616.19 3824.31C1616.19 3826.21 1617.73 3827.75 1619.63 3827.75L1650.29 3827.75 1650.29 3820.87 1628.56 3820.87 1657.38 3794.85 1652.77 3789.75ZM1805.25 3635.25 1774.59 3635.25 1774.59 3642.13 1797.51 3642.13 1770.69 3671.83 1775.79 3676.44 1801.81 3647.62 1801.81 3669.35 1808.69 3669.35 1808.69 3638.69C1808.69 3636.79 1807.15 3635.25 1805.25 3635.25ZM1623.06 3669.35 1616.19 3669.35 1616.19 3638.69C1616.19 3636.79 1617.73 3635.25 1619.63 3635.25L1650.29 3635.25 1650.29 3642.13 1627.92 3642.13 1657.5 3671.71 1652.64 3676.57 1623.06 3646.99 1623.06 3669.35Z" fill="#FFFFFF" fill-rule="evenodd" fill-opacity="1"/></g></g></g><text fill="#7AA115" fill-opacity="1" font-family="Arial,Arial_MSFontService,sans-serif" font-style="normal" font-variant="normal" font-weight="400" font-stretch="normal" font-size="55" text-anchor="start" direction="ltr" writing-mode="lr-tb" unicode-bidi="normal" text-decoration="none" transform="matrix(1 0 0 1 1372 3939)">Amazon Elastic File System</text><rect x="1269.5" y="2963.5" width="890" height="329" stroke="#8C4FFF" stroke-width="4.58333" stroke-linecap="butt" stroke-linejoin="miter" stroke-miterlimit="8" stroke-dasharray="18.3333 13.75" stroke-opacity="1" fill="#8C4FFF" fill-opacity="0.101961"/><text fill="#8C4FFF" fill-opacity="1" font-family="Arial,Arial_MSFontService,sans-serif" font-style="normal" font-variant="normal" font-weight="400" font-stretch="normal" font-size="55" text-anchor="start" direction="ltr" writing-mode="lr-tb" unicode-bidi="normal" text-decoration="none" transform="matrix(1 0 0 1 1559.74 3237)">Mount target</text><g><g><g><path d="M1706.92 3090.09 1721.1 3090.09 1721.1 3075.91 1706.92 3075.91 1706.92 3090.09ZM1727.98 3090.09 1742.16 3090.09 1742.16 3075.91 1727.98 3075.91 1727.98 3090.09ZM1703.48 3096.97 1745.59 3096.97C1747.49 3096.97 1749.03 3095.43 1749.03 3093.53L1749.03 3072.47C1749.03 3070.57 1747.49 3069.03 1745.59 3069.03L1703.48 3069.03C1701.58 3069.03 1700.04 3070.57 1700.04 3072.47L1700.04 3093.53C1700.04 3095.43 1701.58 3096.97 1703.48 3096.97ZM1760.2 3102.12 1751.61 3102.12C1749.71 3102.12 1748.17 3103.66 1748.17 3105.56L1748.17 3111.15 1740.01 3111.15 1740.01 3105.56C1740.01 3103.66 1738.47 3102.12 1736.57 3102.12L1724.54 3102.12C1722.64 3102.12 1721.1 3103.66 1721.1 3105.56L1721.1 3111.15 1697.89 3111.15 1697.89 3105.56C1697.89 3103.66 1696.35 3102.12 1694.46 3102.12L1691.88 3102.12 1691.88 3063.88 1760.2 3063.88 1760.2 3102.12ZM1763.64 3057 1688.44 3057C1686.54 3057 1685 3058.54 1685 3060.44L1685 3105.56C1685 3107.46 1686.54 3109 1688.44 3109L1691.02 3109 1691.02 3114.58C1691.02 3116.49 1692.56 3118.02 1694.46 3118.02L1724.54 3118.02C1726.44 3118.02 1727.98 3116.49 1727.98 3114.58L1727.98 3109 1733.13 3109 1733.13 3114.58C1733.13 3116.49 1734.67 3118.02 1736.57 3118.02L1751.61 3118.02C1753.51 3118.02 1755.05 3116.49 1755.05 3114.58L1755.05 3109 1763.64 3109C1765.54 3109 1767.08 3107.46 1767.08 3105.56L1767.08 3060.44C1767.08 3058.54 1765.54 3057 1763.64 3057ZM1679.85 3054.43 1679.85 3120.6C1679.85 3122.5 1678.31 3124.04 1676.41 3124.04L1665.58 3124.04 1665.58 3117.16 1672.97 3117.16 1672.97 3057.86 1665.58 3057.86 1665.58 3050.99 1676.41 3050.99C1678.31 3050.99 1679.85 3052.52 1679.85 3054.43ZM1712.51 3153.26C1674.59 3153.26 1643.75 3122.42 1643.75 3084.5 1643.75 3046.59 1674.59 3015.75 1712.51 3015.75 1750.42 3015.75 1781.26 3046.59 1781.26 3084.5 1781.26 3122.42 1750.42 3153.26 1712.51 3153.26ZM1712.51 3008.88C1670.8 3008.88 1636.88 3042.8 1636.88 3084.5 1636.88 3126.21 1670.8 3160.14 1712.51 3160.14 1754.21 3160.14 1788.13 3126.21 1788.13 3084.5 1788.13 3042.8 1754.21 3008.88 1712.51 3008.88Z" fill="#8C4FFF" fill-rule="evenodd" fill-opacity="1"/></g></g></g><path d="M0 0 0.000360892 302.664" stroke="#000000" stroke-width="5.72917" stroke-linecap="butt" stroke-linejoin="miter" stroke-miterlimit="8" stroke-opacity="1" fill="none" fill-rule="evenodd" transform="matrix(1 0 0 -1 1714 3594.66)"/><path d="M2159 2488 2535 2488 2535 3122 2450.59 3122 2159 3122" stroke="#000000" stroke-width="5.72917" stroke-linecap="butt" stroke-linejoin="miter" stroke-miterlimit="8" stroke-opacity="1" fill="none" fill-rule="evenodd"/><rect x="920" y="1988" width="1589" height="877" stroke="#E1700F" stroke-width="5.72917" stroke-linecap="butt" stroke-linejoin="miter" stroke-miterlimit="8" stroke-opacity="1" fill="#ED7102" fill-opacity="0.101961"/><text fill="#E1700F" fill-opacity="1" font-family="Arial,Arial_MSFontService,sans-serif" font-style="normal" font-variant="normal" font-weight="400" font-stretch="normal" font-size="55" text-anchor="start" direction="ltr" writing-mode="lr-tb" unicode-bidi="normal" text-decoration="none" transform="matrix(1 0 0 1 1129.9 2107)">Amazon EC2</text><path d="M1269 3129 893 3129 893 2495 977.408 2495 1269 2495" stroke="#000000" stroke-width="5.72917" stroke-linecap="butt" stroke-linejoin="miter" stroke-miterlimit="8" stroke-opacity="1" fill="none" fill-rule="evenodd"/><g><g><g><path d="M920 1986 1113 1986 1113 2179 920 2179Z" fill="#ED7100" fill-rule="evenodd" fill-opacity="1"/><path d="M985.137 2113.86 1045.45 2113.86 1045.45 2053.55 985.137 2053.55 985.137 2113.86ZM1050.28 2053.55 1059.93 2053.55 1059.93 2058.38 1050.28 2058.38 1050.28 2068.02 1059.93 2068.02 1059.93 2072.85 1050.28 2072.85 1050.28 2080.09 1059.93 2080.09 1059.93 2084.91 1050.28 2084.91 1050.28 2094.56 1059.93 2094.56 1059.93 2099.39 1050.28 2099.39 1050.28 2109.04 1059.93 2109.04 1059.93 2113.86 1050.28 2113.86 1050.28 2114.19C1050.28 2116.67 1048.26 2118.69 1045.78 2118.69L1045.45 2118.69 1045.45 2128.34 1040.62 2128.34 1040.62 2118.69 1030.97 2118.69 1030.97 2128.34 1026.15 2128.34 1026.15 2118.69 1018.91 2118.69 1018.91 2128.34 1014.09 2128.34 1014.09 2118.69 1004.44 2118.69 1004.44 2128.34 999.612 2128.34 999.612 2118.69 989.962 2118.69 989.962 2128.34 985.137 2128.34 985.137 2118.69 984.809 2118.69C982.329 2118.69 980.312 2116.67 980.312 2114.19L980.312 2113.86 973.075 2113.86 973.075 2109.04 980.312 2109.04 980.312 2099.39 973.075 2099.39 973.075 2094.56 980.312 2094.56 980.312 2084.91 973.075 2084.91 973.075 2080.09 980.312 2080.09 980.312 2072.85 973.075 2072.85 973.075 2068.02 980.312 2068.02 980.312 2058.38 973.075 2058.38 973.075 2053.55 980.312 2053.55 980.312 2053.22C980.312 2050.74 982.329 2048.72 984.809 2048.72L985.137 2048.72 985.137 2039.07 989.962 2039.07 989.962 2048.72 999.612 2048.72 999.612 2039.07 1004.44 2039.07 1004.44 2048.72 1014.09 2048.72 1014.09 2039.07 1018.91 2039.07 1018.91 2048.72 1026.15 2048.72 1026.15 2039.07 1030.97 2039.07 1030.97 2048.72 1040.62 2048.72 1040.62 2039.07 1045.45 2039.07 1045.45 2048.72 1045.78 2048.72C1048.26 2048.72 1050.28 2050.74 1050.28 2053.22L1050.28 2053.55ZM1018.91 2144.93C1018.91 2145.09 1018.78 2145.23 1018.61 2145.23L954.074 2145.23C953.91 2145.23 953.775 2145.09 953.775 2144.93L953.775 2080.39C953.775 2080.22 953.91 2080.09 954.074 2080.09L968.25 2080.09 968.25 2075.26 954.074 2075.26C951.249 2075.26 948.95 2077.56 948.95 2080.39L948.95 2144.93C948.95 2147.75 951.249 2150.05 954.074 2150.05L1018.61 2150.05C1021.44 2150.05 1023.74 2147.75 1023.74 2144.93L1023.74 2133.16 1018.91 2133.16 1018.91 2144.93ZM1084.05 2020.07 1084.05 2084.61C1084.05 2087.44 1081.75 2089.74 1078.93 2089.74L1064.75 2089.74 1064.75 2084.91 1078.93 2084.91C1079.09 2084.91 1079.23 2084.78 1079.23 2084.61L1079.23 2020.07C1079.23 2019.91 1079.09 2019.77 1078.93 2019.77L1014.39 2019.77C1014.22 2019.77 1014.09 2019.91 1014.09 2020.07L1014.09 2034.25 1009.26 2034.25 1009.26 2020.07C1009.26 2017.25 1011.56 2014.95 1014.39 2014.95L1078.93 2014.95C1081.75 2014.95 1084.05 2017.25 1084.05 2020.07Z" fill="#FFFFFF" fill-rule="evenodd" fill-opacity="1"/></g></g></g><text fill="#E1700F" fill-opacity="1" font-family="Arial,Arial_MSFontService,sans-serif" font-style="normal" font-variant="normal" font-weight="400" font-stretch="normal" font-size="55" text-anchor="start" direction="ltr" writing-mode="lr-tb" unicode-bidi="normal" text-decoration="none" transform="matrix(1 0 0 1 1249.22 2640)">t3.medium</text><text fill="#E1700F" fill-opacity="1" font-family="Arial,Arial_MSFontService,sans-serif" font-style="normal" font-variant="normal" font-weight="400" font-stretch="normal" font-size="46" text-anchor="start" direction="ltr" writing-mode="lr-tb" unicode-bidi="normal" text-decoration="none" transform="matrix(1 0 0 1 1195.94 2698)">Container Service</text><text fill="#E1700F" fill-opacity="1" font-family="Arial,Arial_MSFontService,sans-serif" font-style="normal" font-variant="normal" font-weight="400" font-stretch="normal" font-size="46" text-anchor="start" direction="ltr" writing-mode="lr-tb" unicode-bidi="normal" text-decoration="none" transform="matrix(1 0 0 1 1232.33 2753)">192.168.56.14</text><g><g><g><path d="M1325.94 2543.06 1429.06 2543.06 1429.06 2439.94 1325.94 2439.94 1325.94 2543.06ZM1453.12 2453.69 1453.12 2446.81 1435.94 2446.81 1435.94 2436.5C1435.94 2434.6 1434.4 2433.06 1432.5 2433.06L1422.19 2433.06 1422.19 2415.88 1415.31 2415.88 1415.31 2433.06 1401.56 2433.06 1401.56 2415.88 1394.69 2415.88 1394.69 2433.06 1380.94 2433.06 1380.94 2415.88 1374.06 2415.88 1374.06 2433.06 1360.31 2433.06 1360.31 2415.88 1353.44 2415.88 1353.44 2433.06 1339.69 2433.06 1339.69 2415.88 1332.81 2415.88 1332.81 2433.06 1322.5 2433.06C1320.6 2433.06 1319.06 2434.6 1319.06 2436.5L1319.06 2446.81 1301.87 2446.81 1301.87 2453.69 1319.06 2453.69 1319.06 2467.44 1301.87 2467.44 1301.87 2474.31 1319.06 2474.31 1319.06 2488.06 1301.87 2488.06 1301.87 2494.94 1319.06 2494.94 1319.06 2508.69 1301.87 2508.69 1301.87 2515.56 1319.06 2515.56 1319.06 2529.31 1301.87 2529.31 1301.87 2536.19 1319.06 2536.19 1319.06 2546.5C1319.06 2548.4 1320.6 2549.94 1322.5 2549.94L1332.81 2549.94 1332.81 2567.12 1339.69 2567.12 1339.69 2549.94 1353.44 2549.94 1353.44 2567.12 1360.31 2567.12 1360.31 2549.94 1374.06 2549.94 1374.06 2567.12 1380.94 2567.12 1380.94 2549.94 1394.69 2549.94 1394.69 2567.12 1401.56 2567.12 1401.56 2549.94 1415.31 2549.94 1415.31 2567.12 1422.19 2567.12 1422.19 2549.94 1432.5 2549.94C1434.4 2549.94 1435.94 2548.4 1435.94 2546.5L1435.94 2536.19 1453.12 2536.19 1453.12 2529.31 1435.94 2529.31 1435.94 2515.56 1453.12 2515.56 1453.12 2508.69 1435.94 2508.69 1435.94 2494.94 1453.12 2494.94 1453.12 2488.06 1435.94 2488.06 1435.94 2474.31 1453.12 2474.31 1453.12 2467.44 1435.94 2467.44 1435.94 2453.69 1453.12 2453.69Z" fill="#ED7100" fill-rule="evenodd" fill-opacity="1"/></g></g></g><text fill="#E1700F" fill-opacity="1" font-family="Arial,Arial_MSFontService,sans-serif" font-style="normal" font-variant="normal" font-weight="400" font-stretch="normal" font-size="55" text-anchor="start" direction="ltr" writing-mode="lr-tb" unicode-bidi="normal" text-decoration="none" transform="matrix(1 0 0 1 1973.31 2643)">t3.large</text><text fill="#E1700F" fill-opacity="1" font-family="Arial,Arial_MSFontService,sans-serif" font-style="normal" font-variant="normal" font-weight="400" font-stretch="normal" font-size="46" text-anchor="start" direction="ltr" writing-mode="lr-tb" unicode-bidi="normal" text-decoration="none" transform="matrix(1 0 0 1 1944.1 2701)">Web Server</text><text fill="#E1700F" fill-opacity="1" font-family="Arial,Arial_MSFontService,sans-serif" font-style="normal" font-variant="normal" font-weight="400" font-stretch="normal" font-size="46" text-anchor="start" direction="ltr" writing-mode="lr-tb" unicode-bidi="normal" text-decoration="none" transform="matrix(1 0 0 1 1919.76 2756)">192.168.56.10</text><g><g><g><path d="M2012.94 2546.06 2116.06 2546.06 2116.06 2442.94 2012.94 2442.94 2012.94 2546.06ZM2140.12 2456.69 2140.12 2449.81 2122.94 2449.81 2122.94 2439.5C2122.94 2437.6 2121.4 2436.06 2119.5 2436.06L2109.19 2436.06 2109.19 2418.88 2102.31 2418.88 2102.31 2436.06 2088.56 2436.06 2088.56 2418.88 2081.69 2418.88 2081.69 2436.06 2067.94 2436.06 2067.94 2418.88 2061.06 2418.88 2061.06 2436.06 2047.31 2436.06 2047.31 2418.88 2040.44 2418.88 2040.44 2436.06 2026.69 2436.06 2026.69 2418.88 2019.81 2418.88 2019.81 2436.06 2009.5 2436.06C2007.6 2436.06 2006.06 2437.6 2006.06 2439.5L2006.06 2449.81 1988.88 2449.81 1988.88 2456.69 2006.06 2456.69 2006.06 2470.44 1988.88 2470.44 1988.88 2477.31 2006.06 2477.31 2006.06 2491.06 1988.88 2491.06 1988.88 2497.94 2006.06 2497.94 2006.06 2511.69 1988.88 2511.69 1988.88 2518.56 2006.06 2518.56 2006.06 2532.31 1988.88 2532.31 1988.88 2539.19 2006.06 2539.19 2006.06 2549.5C2006.06 2551.4 2007.6 2552.94 2009.5 2552.94L2019.81 2552.94 2019.81 2570.12 2026.69 2570.12 2026.69 2552.94 2040.44 2552.94 2040.44 2570.12 2047.31 2570.12 2047.31 2552.94 2061.06 2552.94 2061.06 2570.12 2067.94 2570.12 2067.94 2552.94 2081.69 2552.94 2081.69 2570.12 2088.56 2570.12 2088.56 2552.94 2102.31 2552.94 2102.31 2570.12 2109.19 2570.12 2109.19 2552.94 2119.5 2552.94C2121.4 2552.94 2122.94 2551.4 2122.94 2549.5L2122.94 2539.19 2140.12 2539.19 2140.12 2532.31 2122.94 2532.31 2122.94 2518.56 2140.12 2518.56 2140.12 2511.69 2122.94 2511.69 2122.94 2497.94 2140.12 2497.94 2140.12 2491.06 2122.94 2491.06 2122.94 2477.31 2140.12 2477.31 2140.12 2470.44 2122.94 2470.44 2122.94 2456.69 2140.12 2456.69Z" fill="#ED7100" fill-rule="evenodd" fill-opacity="1"/></g></g></g><rect x="2709" y="1988" width="863" height="877" stroke="#CA24D1" stroke-width="5.72917" stroke-linecap="butt" stroke-linejoin="miter" stroke-miterlimit="8" stroke-opacity="1" fill="#C925D1" fill-opacity="0.101961"/><text fill="#CA24D1" fill-opacity="1" font-family="Arial,Arial_MSFontService,sans-serif" font-style="normal" font-variant="normal" font-weight="400" font-stretch="normal" font-size="55" text-anchor="start" direction="ltr" writing-mode="lr-tb" unicode-bidi="normal" text-decoration="none" transform="matrix(1 0 0 1 2918.75 2107)">Amazon RDS</text><g><g><g><path d="M0 0 193 0 193 193 0 193Z" fill="#C925D1" fill-rule="evenodd" fill-opacity="1" transform="matrix(1 0 0 1 2709 1986)"/><path d="M37.1862 33.775 59.6056 56.1943 56.1943 59.6056 33.775 37.1862 33.775 55.4875 28.95 55.4875 28.95 31.3625C28.95 30.0308 30.0284 28.95 31.3625 28.95L55.4875 28.95 55.4875 33.775 37.1862 33.775ZM164.05 31.3625 164.05 55.4875 159.225 55.4875 159.225 37.1862 136.806 59.6056 133.394 56.1943 155.814 33.775 137.512 33.775 137.512 28.95 161.637 28.95C162.971 28.95 164.05 30.0308 164.05 31.3625ZM159.225 137.512 164.05 137.512 164.05 161.637C164.05 162.969 162.971 164.05 161.637 164.05L137.512 164.05 137.512 159.225 155.814 159.225 133.394 136.806 136.806 133.394 159.225 155.814 159.225 137.512ZM158.019 94.6013C158.019 86.5942 148.774 78.6836 133.291 73.4413L134.837 68.872C152.634 74.896 162.844 84.2734 162.844 94.6013 162.844 104.932 152.634 114.311 134.835 120.333L133.288 115.761C148.774 110.521 158.019 102.613 158.019 94.6013ZM35.1163 94.6013C35.1163 102.273 43.77 109.974 58.2667 115.204L56.6286 119.742C39.8907 113.703 30.2913 104.541 30.2913 94.6013 30.2913 84.6642 39.8907 75.5015 56.6286 69.4606L58.2667 73.9986C43.77 79.2313 35.1163 86.932 35.1163 94.6013ZM59.6056 136.806 37.1862 159.225 55.4875 159.225 55.4875 164.05 31.3625 164.05C30.0284 164.05 28.95 162.969 28.95 161.637L28.95 137.512 33.775 137.512 33.775 155.814 56.1943 133.394 59.6056 136.806ZM96.4999 75.4774C79.2602 75.4774 69.9624 71.0239 69.9624 69.2049 69.9624 67.3835 79.2602 62.9324 96.4999 62.9324 113.737 62.9324 123.037 67.3835 123.037 69.2049 123.037 71.0239 113.737 75.4774 96.4999 75.4774ZM96.5699 94.1622C80.0636 94.1622 69.9624 89.6532 69.9624 87.1997L69.9624 75.4726C75.9044 78.7512 86.4446 80.3024 96.4999 80.3024 106.555 80.3024 117.095 78.7512 123.037 75.4726L123.037 87.1997C123.037 89.6557 112.989 94.1622 96.5699 94.1622ZM96.5699 112.584C80.0636 112.584 69.9624 108.075 69.9624 105.622L69.9624 93.7545C75.8272 97.202 86.2275 98.9872 96.5699 98.9872 106.854 98.9872 117.194 97.2044 123.037 93.7666L123.037 105.622C123.037 108.077 112.989 112.584 96.5699 112.584ZM96.4999 129.112C79.3302 129.112 69.9624 124.497 69.9624 122.125L69.9624 112.176C75.8272 115.624 86.2275 117.409 96.5699 117.409 106.854 117.409 117.194 115.629 123.037 112.188L123.037 122.125C123.037 124.497 113.67 129.112 96.4999 129.112ZM96.4999 58.1074C81.3953 58.1074 65.1374 61.579 65.1374 69.2049L65.1374 122.125C65.1374 129.879 80.9152 133.937 96.4999 133.937 112.085 133.937 127.862 129.879 127.862 122.125L127.862 69.2049C127.862 61.579 111.605 58.1074 96.4999 58.1074Z" fill="#FFFFFF" fill-rule="evenodd" fill-opacity="1" transform="matrix(1 0 0 1 2709 1986)"/></g></g></g><text fill="#CA24D1" fill-opacity="1" font-family="Arial,Arial_MSFontService,sans-serif" font-style="normal" font-variant="normal" font-weight="400" font-stretch="normal" font-size="55" text-anchor="start" direction="ltr" writing-mode="lr-tb" unicode-bidi="normal" text-decoration="none" transform="matrix(1 0 0 1 2967.32 2647)">db.t3.medium</text><text fill="#CA24D1" fill-opacity="1" font-family="Arial,Arial_MSFontService,sans-serif" font-style="normal" font-variant="normal" font-weight="400" font-stretch="normal" font-size="46" text-anchor="start" direction="ltr" writing-mode="lr-tb" unicode-bidi="normal" text-decoration="none" transform="matrix(1 0 0 1 3036.07 2705)">Database</text><g><g><g><path d="M3181.21 2519.28C3165.43 2519.28 3157.29 2514.22 3157.29 2512.06L3157.29 2499.93C3163.23 2503.17 3172.24 2504.84 3181.21 2504.84 3190.18 2504.84 3199.18 2503.17 3205.12 2499.93L3205.12 2512.06C3205.12 2514.22 3196.99 2519.28 3181.21 2519.28ZM3181.21 2540.22C3165.43 2540.22 3157.29 2535.16 3157.29 2533L3157.29 2521.24C3163.23 2524.48 3172.24 2526.16 3181.21 2526.16 3190.18 2526.16 3199.18 2524.48 3205.12 2521.24L3205.12 2533C3205.12 2535.16 3196.99 2540.22 3181.21 2540.22ZM3181.21 2558.92C3165.43 2558.92 3157.29 2553.86 3157.29 2551.7L3157.29 2542.18C3163.23 2545.42 3172.24 2547.1 3181.21 2547.1 3190.18 2547.1 3199.18 2545.42 3205.12 2542.18L3205.12 2551.7C3205.12 2553.86 3196.99 2558.92 3181.21 2558.92ZM3181.21 2483.52C3196.99 2483.52 3205.12 2488.58 3205.12 2490.74 3205.12 2492.9 3196.99 2497.97 3181.21 2497.97 3165.43 2497.97 3157.29 2492.9 3157.29 2490.74 3157.29 2488.58 3165.43 2483.52 3181.21 2483.52ZM3181.21 2476.65C3165.91 2476.65 3150.41 2481.49 3150.41 2490.74L3150.41 2551.7C3150.41 2560.95 3165.91 2565.79 3181.21 2565.79 3196.51 2565.79 3212 2560.95 3212 2551.7L3212 2490.74C3212 2481.49 3196.51 2476.65 3181.21 2476.65ZM3080.64 2559.74 3148.23 2559.74 3148.23 2566.62 3080.64 2566.62C3069.74 2566.62 3060.87 2557.75 3060.87 2546.85L3060.87 2435.64C3060.87 2424.74 3069.74 2415.88 3080.64 2415.88L3191.86 2415.88C3202.76 2415.88 3211.62 2424.74 3211.62 2435.64L3211.62 2479.26 3204.75 2479.26 3204.75 2435.64C3204.75 2428.54 3198.96 2422.75 3191.86 2422.75L3080.64 2422.75C3073.53 2422.75 3067.75 2428.54 3067.75 2435.64L3067.75 2546.85C3067.75 2553.96 3073.53 2559.74 3080.64 2559.74ZM3193.66 2435.83 3193.66 2454.17 3201.21 2454.17 3201.21 2456.6 3190.75 2456.6 3190.75 2435.83 3193.66 2435.83ZM3178.88 2454.59C3177.27 2454.59 3176.05 2453.89 3175.23 2452.48 3174.41 2451.07 3174 2448.99 3174 2446.23 3174 2443.47 3174.41 2441.4 3175.23 2440 3176.05 2438.6 3177.27 2437.9 3178.88 2437.9 3180.5 2437.9 3181.72 2438.6 3182.54 2440 3183.36 2441.4 3183.77 2443.47 3183.77 2446.23 3183.77 2448.99 3183.36 2451.07 3182.54 2452.48 3181.72 2453.89 3180.5 2454.59 3178.88 2454.59ZM3185.3 2453.2C3186.26 2451.39 3186.73 2449.07 3186.73 2446.23 3186.73 2442.81 3186.05 2440.16 3184.67 2438.27 3183.29 2436.38 3181.36 2435.44 3178.88 2435.44 3176.41 2435.44 3174.48 2436.38 3173.1 2438.27 3171.72 2440.16 3171.03 2442.81 3171.03 2446.23 3171.03 2448.41 3171.32 2450.29 3171.88 2451.89 3172.45 2453.49 3173.3 2454.73 3174.42 2455.61 3175.54 2456.49 3176.89 2456.97 3178.46 2457.05 3179.6 2458.29 3180.85 2459.28 3182.21 2460.02 3183.57 2460.76 3185.01 2461.23 3186.53 2461.43L3186.53 2458.88C3185.49 2458.76 3184.54 2458.53 3183.68 2458.19 3182.82 2457.85 3181.99 2457.36 3181.19 2456.72 3182.97 2456.18 3184.34 2455.01 3185.3 2453.2ZM3164.33 2453.66C3164.94 2453.06 3165.25 2452.23 3165.25 2451.17 3165.25 2449.74 3164.45 2448.61 3162.85 2447.79L3160.72 2446.71C3159.38 2446.03 3158.41 2445.25 3157.81 2444.37 3157.22 2443.49 3156.91 2442.41 3156.91 2441.13 3156.91 2439.44 3157.44 2438.06 3158.51 2437.01 3159.56 2435.96 3160.95 2435.44 3162.67 2435.44 3164.01 2435.44 3165.51 2435.8 3167.16 2436.52L3167.16 2438.86C3165.81 2438.24 3164.38 2437.93 3162.88 2437.93 3161.94 2437.93 3161.2 2438.2 3160.65 2438.75 3160.09 2439.3 3159.82 2440.04 3159.82 2440.99 3159.82 2441.73 3160.01 2442.35 3160.39 2442.87 3160.77 2443.39 3161.4 2443.88 3162.28 2444.34L3164.4 2445.42C3165.71 2446.08 3166.66 2446.86 3167.27 2447.75 3167.88 2448.66 3168.19 2449.74 3168.19 2451 3168.19 2452.81 3167.61 2454.28 3166.48 2455.39 3165.34 2456.49 3163.82 2457.05 3161.92 2457.05 3161 2457.05 3160.11 2456.94 3159.26 2456.74 3158.42 2456.52 3157.68 2456.22 3157.06 2455.82L3157.06 2453.51C3158.7 2454.21 3160.29 2454.56 3161.83 2454.56 3162.89 2454.56 3163.72 2454.26 3164.33 2453.66ZM3147.07 2444.3C3147.58 2443.53 3148.29 2443.14 3149.21 2443.14 3150.03 2443.14 3150.64 2443.44 3151.04 2444.06 3151.44 2444.67 3151.64 2445.61 3151.64 2446.88 3151.64 2447.03 3151.63 2447.17 3151.62 2447.31 3151.61 2447.45 3151.61 2447.58 3151.61 2447.7L3146.21 2447.7C3146.27 2446.2 3146.56 2445.07 3147.07 2444.3ZM3153.86 2453.78C3152.48 2454.4 3151.22 2454.71 3150.08 2454.71 3148.74 2454.71 3147.76 2454.31 3147.16 2453.51 3146.55 2452.71 3146.23 2451.42 3146.21 2449.61L3153.89 2449.61C3154.05 2448.86 3154.13 2448.03 3154.13 2447.13 3154.13 2445.11 3153.72 2443.58 3152.91 2442.54 3152.1 2441.5 3150.91 2440.99 3149.33 2440.99 3147.47 2440.99 3146.04 2441.67 3145.04 2443.05 3144.04 2444.43 3143.55 2446.41 3143.55 2448.99 3143.55 2451.68 3144.04 2453.69 3145.04 2455.01 3146.04 2456.33 3147.56 2456.99 3149.6 2456.99 3151.22 2456.99 3152.63 2456.61 3153.86 2455.85L3153.86 2453.78ZM3139.24 2441.75C3139.83 2441.44 3140.51 2441.28 3141.27 2441.28 3141.59 2441.28 3141.91 2441.31 3142.23 2441.37L3142.23 2443.98C3141.67 2443.9 3141.21 2443.86 3140.88 2443.86 3139.74 2443.86 3138.7 2444.23 3137.76 2444.97L3137.76 2456.6 3134.94 2456.6 3134.94 2441.41 3137.28 2441.41 3137.55 2443.23C3138.09 2442.55 3138.65 2442.06 3139.24 2441.75ZM3125.53 2453.99C3124.53 2453.99 3123.79 2453.56 3123.32 2452.69 3122.84 2451.82 3122.59 2450.48 3122.59 2448.69 3122.59 2446.85 3122.82 2445.49 3123.27 2444.62 3123.72 2443.75 3124.42 2443.32 3125.39 2443.32 3126.28 2443.32 3127.2 2443.68 3128.14 2444.4L3128.14 2452.85C3127.22 2453.61 3126.35 2453.99 3125.53 2453.99ZM3127.36 2459.66C3126.84 2460.42 3125.96 2460.79 3124.72 2460.79 3123.58 2460.79 3122.27 2460.49 3120.77 2459.87L3120.77 2462.03C3122.05 2462.77 3123.44 2463.13 3124.97 2463.13 3128.94 2463.13 3130.93 2460.67 3130.93 2455.73L3130.93 2441.41 3128.59 2441.41 3128.38 2442.63C3127.22 2441.55 3126.01 2441.01 3124.75 2441.01 3123.24 2441.01 3122.03 2441.71 3121.13 2443.11 3120.23 2444.51 3119.78 2446.4 3119.78 2448.78 3119.78 2450.28 3119.97 2451.59 3120.36 2452.72 3120.75 2453.85 3121.31 2454.73 3122.06 2455.35 3122.8 2455.98 3123.68 2456.3 3124.69 2456.3 3125.89 2456.3 3127.04 2455.79 3128.14 2454.77L3128.14 2455.88C3128.14 2457.64 3127.88 2458.9 3127.36 2459.66ZM3111.38 2452.61 3111.38 2443.68 3109.26 2443.68 3109.26 2441.82 3111.51 2441.46 3111.92 2437.15 3114.2 2437.15 3114.2 2441.41 3117.68 2441.41 3117.68 2443.68 3114.2 2443.68 3114.2 2452.41C3114.2 2453.17 3114.33 2453.7 3114.58 2454.01 3114.82 2454.32 3115.27 2454.47 3115.91 2454.47 3116.53 2454.47 3117.14 2454.37 3117.74 2454.17L3117.74 2456.24C3116.88 2456.6 3115.97 2456.78 3115.01 2456.78 3113.77 2456.78 3112.86 2456.44 3112.27 2455.76 3111.68 2455.08 3111.38 2454.03 3111.38 2452.61ZM3105.08 2454.19C3105.49 2453.8 3105.69 2453.24 3105.69 2452.52 3105.69 2451.66 3105.14 2450.97 3104.04 2450.43L3102.09 2449.47C3100.29 2448.59 3099.4 2447.21 3099.4 2445.33 3099.4 2444.05 3099.82 2443.01 3100.65 2442.21 3101.49 2441.42 3102.58 2441.01 3103.92 2441.01 3105.18 2441.01 3106.39 2441.33 3107.55 2441.98L3107.55 2444.01C3106.45 2443.49 3105.32 2443.23 3104.16 2443.23 3103.48 2443.23 3102.94 2443.41 3102.54 2443.77 3102.14 2444.13 3101.94 2444.62 3101.94 2445.24 3101.94 2445.74 3102.08 2446.16 3102.35 2446.5 3102.62 2446.84 3103.08 2447.17 3103.71 2447.49L3105.54 2448.39C3106.48 2448.85 3107.16 2449.4 3107.59 2450.03 3108.03 2450.68 3108.24 2451.46 3108.24 2452.41 3108.24 2453.78 3107.81 2454.89 3106.95 2455.73 3106.09 2456.57 3104.94 2456.99 3103.51 2456.99 3101.96 2456.99 3100.57 2456.62 3099.31 2455.88L3099.31 2453.84C3100.87 2454.46 3102.22 2454.77 3103.35 2454.77 3104.09 2454.77 3104.66 2454.58 3105.08 2454.19ZM3093.46 2453.32C3092.96 2454.25 3092.19 2454.71 3091.15 2454.71 3090.12 2454.71 3089.34 2454.25 3088.85 2453.32 3088.35 2452.39 3088.09 2450.94 3088.09 2448.99 3088.09 2447.03 3088.35 2445.59 3088.85 2444.67 3089.34 2443.75 3090.12 2443.29 3091.15 2443.29 3092.19 2443.29 3092.96 2443.75 3093.46 2444.67 3093.96 2445.59 3094.21 2447.03 3094.21 2448.99 3094.21 2450.94 3093.96 2452.39 3093.46 2453.32ZM3091.15 2441.01C3089.26 2441.01 3087.8 2441.7 3086.79 2443.08 3085.78 2444.46 3085.28 2446.43 3085.28 2448.99 3085.28 2451.56 3085.78 2453.54 3086.79 2454.92 3087.8 2456.3 3089.26 2456.99 3091.15 2456.99 3093.05 2456.99 3094.51 2456.3 3095.51 2454.92 3096.52 2453.54 3097.03 2451.56 3097.03 2448.99 3097.03 2446.43 3096.52 2444.46 3095.51 2443.08 3094.51 2441.7 3093.05 2441.01 3091.15 2441.01ZM3079.27 2445.15C3078.74 2445.87 3078.01 2446.23 3077.07 2446.23L3074.1 2446.23 3074.1 2438.14 3077.07 2438.14C3078.01 2438.14 3078.74 2438.49 3079.27 2439.2 3079.8 2439.91 3080.06 2440.9 3080.06 2442.18 3080.06 2443.44 3079.8 2444.43 3079.27 2445.15ZM3080.32 2436.64C3079.47 2436.1 3078.48 2435.83 3077.37 2435.83L3071.28 2435.83 3071.28 2456.6 3074.1 2456.6 3074.1 2448.54 3077.37 2448.54C3079.02 2448.54 3080.37 2447.96 3081.4 2446.8 3082.43 2445.64 3082.94 2444.1 3082.94 2442.18 3082.94 2440.94 3082.72 2439.85 3082.27 2438.89 3081.82 2437.93 3081.17 2437.18 3080.32 2436.64Z" fill="#C925D1" fill-rule="evenodd" fill-opacity="1"/></g></g></g></g></g></svg>
